<svg id="visual" viewBox="0 0 900 600" width="900" height="600" xmlns="http://www.w3.org/2000/svg" xmlns:xlink="http://www.w3.org/1999/xlink" version="1.1"><rect x="0" y="0" width="900" height="600" fill="#002060"></rect><path d="M0 398L21.5 411.2C43 424.3 86 450.7 128.8 452.7C171.7 454.7 214.3 432.3 257.2 417.7C300 403 343 396 385.8 405.2C428.7 414.3 471.3 439.7 514.2 452.8C557 466 600 467 642.8 467.8C685.7 468.7 728.3 469.3 771.2 456.7C814 444 857 418 878.5 405L900 392L900 601L878.5 601C857 601 814 601 771.2 601C728.3 601 685.7 601 642.8 601C600 601 557 601 514.2 601C471.3 601 428.7 601 385.8 601C343 601 300 601 257.2 601C214.3 601 171.7 601 128.8 601C86 601 43 601 21.5 601L0 601Z" fill="#FFFFFF" stroke-linecap="round" stroke-linejoin="miter"></path></svg>