<svg id="visual" viewBox="0 0 900 600" width="900" height="600" xmlns="http://www.w3.org/2000/svg" xmlns:xlink="http://www.w3.org/1999/xlink" version="1.1"><rect x="0" y="0" width="900" height="600" fill="#002233"></rect><path d="M0 524L21.5 509.7C43 495.3 86 466.7 128.8 460.2C171.7 453.7 214.3 469.3 257.2 461.2C300 453 343 421 385.8 405.5C428.7 390 471.3 391 514.2 412.2C557 433.3 600 474.7 642.8 483.3C685.7 492 728.3 468 771.2 455.3C814 442.7 857 441.3 878.5 440.7L900 440L900 601L878.5 601C857 601 814 601 771.2 601C728.3 601 685.7 601 642.8 601C600 601 557 601 514.2 601C471.3 601 428.7 601 385.8 601C343 601 300 601 257.2 601C214.3 601 171.7 601 128.8 601C86 601 43 601 21.5 601L0 601Z" fill="#0066FF" stroke-linecap="round" stroke-linejoin="miter"></path></svg>